<?xml version="1.0" encoding="UTF-8" standalone="no"?>
<!DOCTYPE svg PUBLIC "-//W3C//DTD SVG 1.1//EN" "http://www.w3.org/Graphics/SVG/1.1/DTD/svg11.dtd">
<svg width="100%" height="100%" viewBox="0 0 600 600" version="1.1" xmlns="http://www.w3.org/2000/svg" xmlns:xlink="http://www.w3.org/1999/xlink" xml:space="preserve" xmlns:serif="http://www.serif.com/" style="fill-rule:evenodd;clip-rule:evenodd;stroke-linejoin:round;stroke-miterlimit:2;">
    <rect x="0" y="0" width="600" height="600" style="fill:rgb(251,251,249);"/>
    <g transform="matrix(0.268073,0.507249,-0.507249,0.268073,339.292819,235.991427)">
        <path d="M106.261,4.949C108.864,5.038 111.083,5.134 112.984,5.236C114.885,5.338 116.467,5.447 117.794,5.563C119.12,5.678 120.191,5.801 121.07,5.929C121.95,6.058 122.637,6.194 123.195,6.336C123.754,6.478 124.184,6.627 124.549,6.782C124.915,6.937 125.215,7.099 125.513,7.268C125.927,7.758 126.327,8.252 126.712,8.751C127.097,9.249 127.469,9.753 127.826,10.261C128.183,10.769 128.526,11.281 128.855,11.798C129.184,12.315 129.498,12.837 129.799,13.363C130.1,13.889 130.386,14.419 130.659,14.955C130.931,15.49 131.189,16.03 131.433,16.574C131.678,17.118 131.908,17.667 132.124,18.22C132.34,18.774 132.541,19.332 132.729,19.894C132.917,20.457 133.09,21.024 133.25,21.595C133.409,22.167 133.555,22.743 133.686,23.324C133.817,23.905 133.934,24.49 134.037,25.08C134.14,25.669 134.229,26.264 134.303,26.863C134.378,27.462 134.439,28.065 134.485,28.673C134.532,29.281 134.564,29.894 134.582,30.511C134.601,31.128 134.605,31.75 134.595,32.376C134.585,33.002 134.561,33.633 134.522,34.268C133.418,36.066 132.329,37.87 131.257,39.679C130.185,41.489 129.129,43.303 128.089,45.123C127.049,46.943 126.026,48.769 125.019,50.6C124.011,52.431 123.02,54.267 122.046,56.109C121.071,57.951 120.113,59.798 119.171,61.651C118.228,63.504 117.303,65.362 116.393,67.225C115.483,69.089 114.59,70.958 113.713,72.833C112.836,74.707 111.975,76.587 111.13,78.472C110.286,80.358 109.457,82.249 108.645,84.145C107.833,86.041 107.037,87.943 106.258,89.85C105.478,91.757 104.715,93.67 103.968,95.588C103.221,97.506 102.49,99.43 101.775,101.359C101.061,103.288 100.363,105.222 99.681,107.162C98.999,109.102 98.333,111.047 97.683,112.998C97.034,114.949 96.401,116.905 95.784,118.867C95.167,120.828 94.566,122.795 93.982,124.768C93.359,124.132 92.759,123.488 92.182,122.836C91.605,122.184 91.05,121.524 90.518,120.857C89.986,120.19 89.477,119.515 88.99,118.832C88.504,118.149 88.039,117.458 87.598,116.76C87.156,116.062 86.737,115.355 86.341,114.642C85.945,113.928 85.571,113.206 85.22,112.477C84.869,111.747 84.54,111.01 84.234,110.265C83.928,109.52 83.645,108.768 83.384,108.007C83.124,107.247 82.886,106.479 82.67,105.703C82.455,104.927 82.262,104.143 82.092,103.352C81.921,102.56 81.774,101.761 81.649,100.954C81.524,100.147 81.421,99.332 81.342,98.51C81.262,97.687 81.205,96.857 81.17,96.019C81.136,95.181 81.124,94.335 81.134,93.482C81.145,92.629 81.178,91.767 81.234,90.898C81.29,90.029 81.369,89.153 81.47,88.268L82.282,85.034L82.707,83.424L83.131,81.814L83.573,80.21L84.015,78.606L84.475,77.009L84.936,75.412L85.414,73.822L85.892,72.231L86.388,70.647L86.884,69.064L87.398,67.487L87.912,65.909L88.977,62.768L88.914,62.674L88.852,62.581L88.789,62.487L88.727,62.393L88.664,62.299L88.601,62.206L88.539,62.112L88.476,62.018L88.414,61.924L88.351,61.831L88.288,61.737L88.226,61.643L88.163,61.549L88.101,61.456L88.038,61.362L87.976,61.268C87.229,61.754 86.489,62.246 85.756,62.747C85.023,63.247 84.297,63.755 83.578,64.27C82.859,64.786 82.147,65.308 81.442,65.838C80.736,66.368 80.038,66.906 79.347,67.451C78.655,67.996 77.971,68.548 77.293,69.108C76.615,69.667 75.945,70.234 75.281,70.809C74.617,71.383 73.961,71.965 73.311,72.555C72.661,73.144 72.018,73.741 71.382,74.345C70.746,74.949 70.117,75.561 69.495,76.18C68.872,76.799 68.257,77.425 67.649,78.059C67.04,78.693 66.439,79.334 65.844,79.983C65.25,80.631 64.662,81.287 64.082,81.951C63.501,82.614 62.927,83.285 62.361,83.963C61.794,84.642 61.234,85.327 60.681,86.02C60.128,86.713 59.582,87.414 59.043,88.122C58.504,88.83 57.971,89.545 57.446,90.268C55.263,93.044 53.188,95.836 51.222,98.645C49.256,101.454 47.398,104.28 45.649,107.122C43.9,109.965 42.259,112.823 40.726,115.699C39.194,118.574 37.77,121.466 36.454,124.375C35.138,127.284 33.931,130.209 32.832,133.151C31.733,136.093 30.743,139.052 29.861,142.027C28.979,145.002 28.205,147.994 27.54,151.002C26.875,154.011 26.318,157.036 25.869,160.077C25.421,163.119 25.081,166.177 24.849,169.252C24.618,172.327 24.495,175.419 24.48,178.527C24.465,181.635 24.559,184.76 24.761,187.901C24.963,191.042 25.274,194.2 25.693,197.375C26.112,200.55 26.639,203.741 27.275,206.949C27.911,210.157 28.655,213.381 29.508,216.622C30.36,219.863 31.321,223.121 32.391,226.395C33.46,229.669 34.638,232.96 35.924,236.268C35.828,236.39 35.729,236.506 35.629,236.616C35.529,236.726 35.427,236.831 35.323,236.93C35.219,237.029 35.114,237.122 35.007,237.21C34.899,237.298 34.79,237.38 34.679,237.456C34.568,237.533 34.456,237.604 34.341,237.669C34.227,237.734 34.111,237.793 33.993,237.847C33.875,237.901 33.755,237.949 33.633,237.992C33.512,238.034 33.388,238.071 33.263,238.102C33.138,238.134 33.011,238.159 32.883,238.179C32.754,238.199 32.623,238.214 32.491,238.222C32.359,238.231 32.225,238.234 32.089,238.231C31.953,238.229 31.816,238.22 31.676,238.206C31.537,238.192 31.396,238.173 31.253,238.148C31.11,238.122 30.965,238.091 30.819,238.055C30.672,238.018 30.524,237.976 30.374,237.928C30.224,237.881 30.072,237.827 29.918,237.768C29.205,237.167 28.509,236.555 27.829,235.934C27.149,235.313 26.486,234.682 25.839,234.04C25.192,233.399 24.562,232.748 23.948,232.087C23.334,231.426 22.737,230.755 22.156,230.074C21.575,229.394 21.011,228.703 20.464,228.002C19.916,227.301 19.385,226.591 18.87,225.87C18.356,225.149 17.858,224.419 17.376,223.678C16.895,222.938 16.43,222.187 15.982,221.427C15.533,220.666 15.101,219.896 14.686,219.116C14.271,218.335 13.872,217.545 13.49,216.745C13.108,215.945 12.742,215.135 12.393,214.315C12.044,213.495 11.711,212.665 11.395,211.825C11.079,210.985 10.78,210.135 10.497,209.275C10.214,208.415 9.948,207.545 9.698,206.666C9.448,205.786 9.215,204.896 8.998,203.997C8.781,203.097 8.581,202.188 8.397,201.268C7.936,199.215 7.509,197.164 7.118,195.114C6.727,193.065 6.371,191.018 6.051,188.973C5.731,186.928 5.446,184.884 5.196,182.843C4.947,180.802 4.733,178.763 4.554,176.726C4.375,174.689 4.232,172.654 4.124,170.621C4.016,168.588 3.943,166.557 3.906,164.528C3.869,162.499 3.867,160.472 3.9,158.447C3.934,156.422 4.003,154.4 4.107,152.379C4.211,150.358 4.351,148.339 4.526,146.322C4.701,144.306 4.911,142.291 5.157,140.278C5.403,138.265 5.684,136.255 6.001,134.246C6.317,132.237 6.669,130.231 7.056,128.226C7.444,126.221 7.866,124.219 8.324,122.218C8.783,120.218 9.276,118.219 9.805,116.223C10.334,114.226 10.898,112.232 11.498,110.239C12.097,108.247 12.732,106.256 13.402,104.268C13.752,103.465 14.108,102.667 14.471,101.873C14.834,101.079 15.203,100.29 15.58,99.506C15.957,98.721 16.34,97.941 16.73,97.166C17.121,96.391 17.518,95.62 17.922,94.854C18.326,94.088 18.737,93.327 19.154,92.57C19.572,91.813 19.997,91.061 20.428,90.313C20.86,89.566 21.298,88.823 21.743,88.084C22.188,87.346 22.64,86.612 23.099,85.883C23.557,85.154 24.023,84.429 24.495,83.709C24.968,82.989 25.447,82.274 25.933,81.563C26.42,80.853 26.913,80.147 27.413,79.445C27.912,78.743 28.419,78.047 28.933,77.354C29.446,76.662 29.967,75.974 30.494,75.291C31.021,74.608 31.555,73.93 32.096,73.256C32.637,72.582 33.185,71.913 33.74,71.248C34.294,70.584 34.856,69.923 35.424,69.268L37.69,67.113L39.956,64.959L42.222,62.804L44.488,60.649L46.766,58.514L49.043,56.379L51.321,54.244L53.599,52.109L58.177,47.879L60.467,45.764L62.756,43.649L65.057,41.554L67.358,39.459L69.659,37.363L71.96,35.268L71.153,35.12L70.346,34.973L68.728,34.709L67.917,34.592L67.106,34.475L66.294,34.373L65.482,34.272L64.667,34.186L63.853,34.1L63.037,34.029L62.221,33.959L60.586,33.848L59.766,33.808L58.947,33.768C58.686,33.674 58.431,33.575 58.181,33.471C57.93,33.367 57.685,33.258 57.446,33.143C57.206,33.028 56.971,32.909 56.742,32.784C56.512,32.659 56.288,32.529 56.069,32.393C55.85,32.258 55.636,32.117 55.428,31.971C55.219,31.825 55.016,31.674 54.818,31.518C54.62,31.362 54.427,31.2 54.239,31.034C54.051,30.867 53.869,30.695 53.692,30.518C53.515,30.341 53.343,30.159 53.176,29.971C53.009,29.784 52.847,29.591 52.691,29.393C52.535,29.195 52.383,28.992 52.237,28.784C52.091,28.575 51.951,28.362 51.815,28.143C51.68,27.924 51.549,27.7 51.424,27.471C51.299,27.242 51.179,27.008 51.065,26.768C50.95,26.529 50.84,26.284 50.736,26.034C50.632,25.784 50.533,25.528 50.439,25.268C50.317,25.01 50.198,24.751 50.083,24.491C49.967,24.232 49.854,23.971 49.744,23.71C49.634,23.449 49.528,23.187 49.424,22.924C49.321,22.661 49.22,22.397 49.123,22.133C49.025,21.868 48.931,21.603 48.839,21.337C48.748,21.071 48.66,20.804 48.574,20.537C48.489,20.269 48.407,20 48.328,19.731C48.249,19.462 48.172,19.192 48.099,18.921C48.026,18.65 47.956,18.378 47.89,18.106C47.823,17.834 47.759,17.56 47.698,17.286C47.637,17.012 47.58,16.738 47.525,16.462C47.47,16.186 47.419,15.91 47.37,15.633C47.322,15.355 47.276,15.077 47.234,14.799C47.191,14.52 47.152,14.24 47.116,13.96C47.08,13.68 47.046,13.398 47.016,13.116C46.986,12.834 46.959,12.552 46.935,12.268L54.91,11.647L58.884,11.283L62.859,10.918L66.82,10.499L70.781,10.081L74.729,9.608L78.677,9.135L82.612,8.608L86.547,8.081L90.468,7.5L94.39,6.918L98.299,6.283L102.207,5.647L106.102,4.958C106.102,4.958 103.659,4.86 106.261,4.949Z" style="fill:rgb(3,3,3);"/>
    </g>
    <g transform="matrix(1,0,0,1,300,162)">
        <text x="-70.308px" y="0px" style="font-family:'Helvetica';font-size:22px;fill:rgb(26,26,26);fill-opacity:0.9;">Install Refman</text>
    </g>
    <g transform="matrix(1,0,0,1,300,190)">
        <text x="-118.523px" y="0px" style="font-family:'Helvetica';font-size:13px;fill:rgb(26,26,26);fill-opacity:0.45;">Drag the icon onto the <tspan x="12.295px 20.966px " y="0px 0px ">Ap</tspan>plications folder</text>
    </g>
</svg>
